HIERARCHY
ROOT Hips
{
 OFFSET 0.000000 0.000000 0.000000
 CHANNELS 6 Xposition Yposition Zposition Yrotation Xrotation Zrotation
 JOINT Chest
 {
  OFFSET 0.000000 9.585900 0.002600
  CHANNELS 3 Yrotation Xrotation Zrotation
  JOINT Chest2
  {
   OFFSET 0.000000 9.601200 -0.005300
   CHANNELS 3 Yrotation Xrotation Zrotation
   JOINT Chest3
   {
    OFFSET 0.000000 9.561800 0.000000
    CHANNELS 3 Yrotation Xrotation Zrotation
    JOINT Chest4
    {
     OFFSET 0.000000 9.552100 0.000000
     CHANNELS 3 Yrotation Xrotation Zrotation
     JOINT Neck
     {
      OFFSET 0.000000 14.453000 0.000000
      CHANNELS 3 Yrotation Xrotation Zrotation
      JOINT Head
      {
       OFFSET 0.000000 8.936500 -0.011300
       CHANNELS 3 Yrotation Xrotation Zrotation
       End Site
       {
        OFFSET 0.000000 17.073600 -0.006000
       }
      }
     }
     JOINT RightCollar
     {
      OFFSET -2.921100 9.558500 0.000000
      CHANNELS 3 Yrotation Xrotation Zrotation
      JOINT RightShoulder
      {
       OFFSET -13.519700 0.000000 0.000000
       CHANNELS 3 Yrotation Xrotation Zrotation
       JOINT RightElbow
       {
        OFFSET 0.000000 -29.696600 0.000000
        CHANNELS 3 Yrotation Xrotation Zrotation
        JOINT RightWrist
        {
         OFFSET 0.000000 -24.004700 0.000000
         CHANNELS 3 Yrotation Xrotation Zrotation
         End Site
         {
          OFFSET 0.000000 -17.728500 0.000000
         }
        }
       }
      }
     }
     JOINT LeftCollar
     {
      OFFSET 2.921100 9.558500 0.000000
      CHANNELS 3 Yrotation Xrotation Zrotation
      JOINT LeftShoulder
      {
       OFFSET 13.519700 0.000000 0.000000
       CHANNELS 3 Yrotation Xrotation Zrotation
       JOINT LeftElbow
       {
        OFFSET 0.000000 -29.696600 0.000000
        CHANNELS 3 Yrotation Xrotation Zrotation
        JOINT LeftWrist
        {
         OFFSET 0.000000 -24.004700 0.000000
         CHANNELS 3 Yrotation Xrotation Zrotation
         End Site
         {
          OFFSET 0.000000 -17.728500 0.000000
         }
        }
       }
      }
     }
    }
   }
  }
 }
 JOINT RightHip
 {
  OFFSET -7.771700 -0.012900 -0.001300
  CHANNELS 3 Yrotation Xrotation Zrotation
  JOINT RightKnee
  {
   OFFSET 0.000000 -40.869800 0.001200
   CHANNELS 3 Yrotation Xrotation Zrotation
   JOINT RightAnkle
   {
    OFFSET 0.000000 -39.717900 0.002100
    CHANNELS 3 Yrotation Xrotation Zrotation
    JOINT RightToe
    {
     OFFSET 0.000000 -4.965400 11.033500
     CHANNELS 3 Yrotation Xrotation Zrotation
     End Site
     {
      OFFSET 0.000000 -1.423100 5.872300
     }
    }
   }
  }
 }
 JOINT LeftHip
 {
  OFFSET 7.771700 -0.012900 -0.001300
  CHANNELS 3 Yrotation Xrotation Zrotation
  JOINT LeftKnee
  {
   OFFSET 0.000000 -40.869800 0.001200
   CHANNELS 3 Yrotation Xrotation Zrotation
   JOINT LeftAnkle
   {
    OFFSET 0.000000 -39.717900 0.002100
    CHANNELS 3 Yrotation Xrotation Zrotation
    JOINT LeftToe
    {
     OFFSET 0.000000 -4.965400 11.033500
     CHANNELS 3 Yrotation Xrotation Zrotation
     End Site
     {
      OFFSET 0.000000 -1.423100 5.872300
     }
    }
   }
  }
 }
}
MOTION
Frames: 12
Frame Time: 0.008333
0.000000 85.388000 0.000000 0.000000 -5.767877 0.000000 0.000000 11.653817 0.000000 0.000000 -5.885947 0.000000 0.000000 -0.000000 0.000000 0.000000 -0.000000 0.000000 0.000000 12.528835 0.000000 0.000000 0.711642 0.000000 0.000000 -0.000000 0.000000 0.000000 0.000000 -90.000000 0.000000 -2.309062 0.000000 0.000000 2.309062 0.000000 0.000000 -0.000000 0.000000 0.000000 -0.000000 90.000000 0.000000 -2.309062 0.000000 0.000000 2.309062 0.000000 0.000000 8.520406 0.000000 0.000000 1.905762 0.000000 -0.000000 -4.658285 0.000000 0.000000 -0.000000 0.000000 0.000000 8.520406 0.000000 0.000000 1.905762 0.000000 -0.000000 -4.658285 0.000000 0.000000 -0.000000 0.000000
-15.078098 57.231901 41.261479 -154.249675 -37.984355 -1.099317 -15.504393 17.809490 -2.612252 -2.194711 2.667976 -0.271306 -3.529740 4.301991 -0.494178 -12.820703 15.069348 -3.103953 0.791736 23.152929 -4.008363 2.507322 7.419589 -7.280345 2.699114 3.001294 -1.680203 -1.070307 -17.114287 -11.206538 161.087561 -44.556548 -147.357969 19.442745 -20.099253 -48.353151 -2.381835 2.907103 0.736403 23.045249 -5.729598 -0.485338 -163.120727 -28.668061 154.051517 -12.649204 -14.929843 33.175580 1.552776 -31.293077 -27.694285 -6.036265 66.776908 -2.747905 5.276925 10.068353 7.608237 -0.062827 0.459323 0.014079 -20.434208 -46.598880 -19.884660 28.812768 67.268237 27.424779 -16.542874 36.119498 -2.415195 0.945065 -22.805051 -8.273291
-15.113009 57.236794 41.262912 -154.329672 -38.029026 -1.003979 -15.495513 17.795034 -2.646689 -2.175762 2.686052 -0.288064 -3.523481 4.295191 -0.492484 -12.800923 15.012663 -3.033587 0.770956 23.252917 -4.025361 2.459497 7.510155 -7.305570 2.678401 3.023750 -1.704896 -1.168766 -17.007894 -11.169385 161.027389 -44.498765 -147.302784 19.529312 -20.011924 -48.384296 -2.383836 2.947944 0.717877 23.050613 -5.733894 -0.488383 -163.133606 -28.740008 153.993035 -12.682725 -14.866993 33.182807 1.699088 -31.196019 -27.860802 -5.819716 66.767402 -2.408583 5.220440 9.980692 7.547115 -0.053945 0.469342 0.015665 -20.295962 -46.553483 -20.071228 28.850415 67.223522 27.504413 -16.374949 36.114602 -2.307525 0.895587 -22.769024 -8.332213
-15.146440 57.239509 41.264319 -154.367981 -38.051676 -0.954787 -15.499388 17.761239 -2.656051 -2.170687 2.678341 -0.284429 -3.493448 4.257213 -0.483642 -12.777795 14.989259 -3.011055 0.715832 23.348662 -4.036633 2.388120 7.597027 -7.326519 2.627697 3.065864 -1.702895 -1.281412 -16.908957 -11.130057 161.021032 -44.449770 -147.290822 19.595788 -19.950202 -48.431279 -2.411959 3.017133 0.721254 23.049925 -5.693290 -0.534377 -163.165705 -28.796025 153.925585 -12.701734 -14.804630 33.189205 1.791133 -31.124015 -27.968120 -5.716297 66.753392 -2.226309 5.199700 9.893488 7.525022 -0.052353 0.472975 0.014283 -20.230370 -46.532438 -20.206840 28.828568 67.207596 27.518067 -16.153291 36.088228 -2.193489 0.812328 -22.724900 -8.375543
-15.176055 57.241275 41.262959 -154.395052 -38.065242 -0.940254 -15.471042 17.678852 -2.619628 -2.173373 2.711026 -0.296281 -3.468938 4.238604 -0.481216 -12.743680 14.963208 -2.996341 0.656430 23.419982 -4.032142 2.297933 7.680454 -7.331156 2.554991 3.103215 -1.665782 -1.394463 -16.820135 -11.091094 161.072110 -44.420818 -147.326549 19.636391 -19.914548 -48.475924 -2.468593 3.100895 0.714557 23.111379 -5.718539 -0.474532 -163.312173 -28.940405 153.939615 -12.708598 -14.751932 33.191626 1.843384 -31.067629 -28.029501 -5.615373 66.739298 -2.060865 5.180986 9.811768 7.502610 -0.051434 0.470173 0.013443 -20.209322 -46.522096 -20.272277 28.858409 67.200216 27.562404 -16.027834 36.071857 -2.122697 0.773239 -22.696750 -8.405813
-15.202543 57.242435 41.258961 -154.417583 -38.073688 -0.939785 -15.427846 17.617616 -2.581066 -2.169430 2.717082 -0.296452 -3.482936 4.283192 -0.499652 -12.675446 14.874145 -2.946856 0.637521 23.422364 -3.992786 2.160987 7.824589 -7.343912 2.475877 3.168405 -1.641799 -1.520452 -16.756672 -11.025639 161.163626 -44.400524 -147.391795 19.672140 -19.880993 -48.521846 -2.512563 3.180503 0.773517 23.133573 -5.668690 -0.473821 -163.436337 -29.064271 153.947196 -12.704745 -14.710325 33.187692 1.875348 -31.032598 -28.073035 -5.504470 66.735787 -1.894916 5.162094 9.768625 7.477851 -0.045125 0.431025 0.009758 -20.202862 -46.513539 -20.290994 28.907547 67.193296 27.613888 -16.028016 36.058313 -2.132931 0.823157 -22.665555 -8.416694
-15.236558 57.244522 41.255449 -154.441199 -38.093124 -0.873877 -15.412288 17.576103 -2.623003 -2.133497 2.635316 -0.274081 -3.455997 4.248886 -0.491900 -12.697018 14.904678 -2.967016 0.582856 23.468519 -3.994797 2.060748 7.906787 -7.332162 2.406494 3.274684 -1.657350 -1.668285 -16.733487 -10.909304 161.259851 -44.379505 -147.456021 19.713025 -19.836927 -48.576722 -2.558968 3.271312 0.828655 23.152399 -5.602303 -0.477121 -163.534426 -29.171922 153.939217 -12.687147 -14.675248 33.175624 1.937052 -30.998848 -28.183995 -5.394408 66.748661 -1.761438 5.145148 9.718106 7.467950 -0.034742 0.393512 0.007768 -20.127531 -46.517252 -20.401867 28.871304 67.202675 27.589380 -16.058149 36.019772 -2.202546 0.900372 -22.599714 -8.401343
-15.246724 57.244169 41.243704 -154.435394 -38.085954 -0.945218 -15.373919 17.528453 -2.530040 -2.119233 2.602622 -0.266934 -3.439827 4.223356 -0.486710 -12.693776 14.893838 -2.964645 0.531531 23.507732 -3.997099 1.967083 7.976369 -7.322039 2.317180 3.310087 -1.556189 -1.745525 -16.650900 -10.913117 161.346746 -44.359971 -147.507459 19.755759 -19.777663 -48.638707 -2.609766 3.372413 0.859607 23.179955 -5.543740 -0.456119 -163.615867 -29.264190 153.922417 -12.660249 -14.643884 33.154545 1.878251 -30.977532 -28.118534 -5.316240 66.734716 -1.659355 5.123291 9.613420 7.433623 -0.036074 0.414148 0.013548 -20.200153 -46.513610 -20.358106 28.834625 67.223452 27.584411 -15.921872 36.061541 -2.139316 0.863592 -22.631469 -8.443898
-15.260556 57.243891 41.233140 -154.424148 -38.079069 -0.961448 -15.351502 17.458074 -2.487087 -2.122233 2.618999 -0.275850 -3.431490 4.208199 -0.483512 -12.674443 14.843986 -2.937816 0.473720 23.578152 -4.024704 1.893985 7.988690 -7.296771 2.242756 3.376467 -1.497117 -1.824597 -16.610382 -10.869971 161.442669 -44.346348 -147.562063 19.790956 -19.692172 -48.702363 -2.659162 3.474323 0.847051 23.194512 -5.514033 -0.444050 -163.627879 -29.331468 153.832593 -12.634062 -14.621057 33.127038 1.856210 -30.971757 -28.124717 -5.292371 66.743709 -1.621670 5.123263 9.540678 7.415206 -0.036693 0.403215 0.013838 -20.213081 -46.534636 -20.388989 28.910543 67.229325 27.675994 -15.867745 36.090569 -2.098719 0.841358 -22.658589 -8.469379
-15.264120 57.242857 41.219224 -154.394728 -38.061081 -1.014960 -15.345260 17.407122 -2.418038 -2.130624 2.646390 -0.294669 -3.428919 4.203157 -0.482427 -12.661727 14.811183 -2.918123 0.467383 23.532436 -3.987810 1.819665 8.043886 -7.302885 2.206400 3.408567 -1.440229 -1.896975 -16.595110 -10.800416 161.589435 -44.348420 -147.649521 19.816199 -19.566889 -48.767981 -2.678198 3.523641 0.913044 23.214243 -5.464977 -0.482717 -163.609258 -29.373982 153.719368 -12.616172 -14.609227 33.100877 1.753149 -31.004327 -28.062077 -5.270275 66.756264 -1.634974 5.129379 9.484320 7.398182 -0.038178 0.381052 0.010301 -20.224465 -46.566920 -20.411890 28.993995 67.253424 27.804554 -15.781814 36.170662 -2.033601 0.798279 -22.724179 -8.505035
-15.267943 57.243384 41.203762 -154.378645 -38.055144 -1.025022 -15.350595 17.381717 -2.402005 -2.117666 2.610863 -0.279150 -3.422763 4.185646 -0.478180 -12.667338 14.768399 -2.887857 0.428496 23.545064 -3.993794 1.763302 8.076659 -7.314327 2.162238 3.511215 -1.429448 -1.953831 -16.595336 -10.733598 161.833696 -44.375888 -147.800609 19.830609 -19.396018 -48.838802 -2.709833 3.634701 0.923243 23.270269 -5.382478 -0.387408 -163.673843 -29.390179 153.743920 -12.610918 -14.603566 33.086192 1.697213 -31.026506 -28.037842 -5.260615 66.781510 -1.667120 5.127822 9.436390 7.394930 -0.040541 0.351556 0.006344 -20.219269 -46.579798 -20.431713 28.991024 67.269216 27.822299 -15.787617 36.208628 -2.066520 0.816723 -22.750735 -8.493066
-15.266681 57.243664 41.187053 -154.352916 -38.042292 -1.036038 -15.365933 17.350643 -2.389497 -2.103836 2.545751 -0.229704 -3.420209 4.158439 -0.469235 -12.697905 14.767013 -2.905520 0.394515 23.562461 -4.012512 1.721919 8.069942 -7.313724 2.125680 3.609940 -1.425502 -1.998611 -16.609552 -10.676393 162.191574 -44.429835 -148.032974 19.824221 -19.198333 -48.918871 -2.728572 3.735254 0.902043 23.322437 -5.320768 -0.314882 -163.695365 -29.386398 153.699589 -12.621813 -14.601645 33.085399 1.658012 -31.050720 -28.028493 -5.276751 66.813961 -1.705318 5.134278 9.398884 7.392525 -0.048344 0.314738 0.001146 -20.216487 -46.599338 -20.452267 29.021768 67.280269 27.875857 -15.822104 36.237002 -2.100073 0.842894 -22.768408 -8.488881
